<svg xmlns="http://www.w3.org/2000/svg" width="70.75" height="9.781" viewBox="0 0 70.75 9.781">
  <defs>
    <style>
      .cls-1 {
        fill: #d1b877;
        fill-rule: evenodd;
      }
    </style>
  </defs>
  <path id="звезды_копия" data-name="звезды копия" class="cls-1" d="M520.507,382.923l1.007,3.1a0.421,0.421,0,0,0,.4.291h3.121a0.365,0.365,0,0,1,.2.677l-2.517,1.742a0.308,0.308,0,0,0-.1.387l1.007,2.9a0.366,0.366,0,0,1-.6.388l-2.518-1.742a0.463,0.463,0,0,0-.5,0l-2.517,1.742a0.392,0.392,0,0,1-.605-0.388l1.007-2.9a0.283,0.283,0,0,0-.1-0.387l-2.518-1.742a0.365,0.365,0,0,1,.2-0.677h3.121a0.42,0.42,0,0,0,.4-0.291l1.007-3.1C520,382.632,520.407,382.632,520.507,382.923Zm15.1,0,1.007,3.1a0.419,0.419,0,0,0,.4.291h3.122a0.364,0.364,0,0,1,.2.677l-2.517,1.742a0.309,0.309,0,0,0-.1.387l1.007,2.9a0.366,0.366,0,0,1-.6.388l-2.517-1.742a0.465,0.465,0,0,0-.5,0l-2.517,1.742a0.392,0.392,0,0,1-.6-0.388l1.007-2.9a0.284,0.284,0,0,0-.1-0.387l-2.517-1.742a0.365,0.365,0,0,1,.2-0.677H533.7a0.419,0.419,0,0,0,.4-0.291l1.007-3.1C535.107,382.632,535.51,382.632,535.611,382.923Zm15.1,0,1.007,3.1a0.42,0.42,0,0,0,.4.291h3.121a0.365,0.365,0,0,1,.2.677l-2.518,1.742a0.309,0.309,0,0,0-.1.387l1.007,2.9a0.366,0.366,0,0,1-.605.388l-2.517-1.742a0.463,0.463,0,0,0-.5,0l-2.517,1.742a0.392,0.392,0,0,1-.6-0.388l1.007-2.9a0.283,0.283,0,0,0-.1-0.387l-2.518-1.742a0.365,0.365,0,0,1,.2-0.677H548.8a0.421,0.421,0,0,0,.4-0.291l1.007-3.1C550.211,382.632,550.613,382.632,550.714,382.923Zm15.1,0,1.006,3.1a0.421,0.421,0,0,0,.4.291h3.122a0.365,0.365,0,0,1,.2.677l-2.517,1.742a0.308,0.308,0,0,0-.1.387l1.007,2.9a0.366,0.366,0,0,1-.6.388l-2.517-1.742a0.465,0.465,0,0,0-.5,0l-2.517,1.742a0.392,0.392,0,0,1-.6-0.388l1.007-2.9a0.284,0.284,0,0,0-.1-0.387l-2.517-1.742a0.364,0.364,0,0,1,.2-0.677h3.122a0.419,0.419,0,0,0,.4-0.291l1.007-3.1C565.314,382.632,565.717,382.632,565.818,382.923Zm15.1,0,1.007,3.1a0.42,0.42,0,0,0,.4.291h3.121a0.364,0.364,0,0,1,.2.677l-2.517,1.742a0.309,0.309,0,0,0-.1.387l1.006,2.9a0.366,0.366,0,0,1-.6.388l-2.517-1.742a0.463,0.463,0,0,0-.5,0l-2.518,1.742a0.392,0.392,0,0,1-.6-0.388l1.007-2.9a0.283,0.283,0,0,0-.1-0.387l-2.517-1.742a0.365,0.365,0,0,1,.2-0.677h3.121a0.421,0.421,0,0,0,.4-0.291l1.007-3.1C580.418,382.632,580.82,382.632,580.921,382.923Z" transform="translate(-515.094 -382.719)"/>
</svg>
