<svg width="20" height="24" viewBox="0 0 20 24" fill="none" xmlns="http://www.w3.org/2000/svg">
<path d="M9.70163 23.2217C9.80114 23.2217 9.90064 23.2715 9.95039 23.2715C10.0001 23.2715 10.1494 23.2715 10.1992 23.2217C10.5972 23.1222 19.9008 20.4854 19.9008 14.3161V2.87318C19.9008 2.47516 19.652 2.1269 19.3038 1.97764C13.3335 -0.659214 6.51751 -0.659214 0.597024 1.97764C0.24876 2.1269 0 2.47516 0 2.87318V14.3161C0 20.4854 9.30362 23.1222 9.70163 23.2217ZM5.27371 10.0872C5.67173 9.6892 6.26875 9.6892 6.66676 10.0872L9.00511 12.4256L13.234 8.19664C13.632 7.79862 14.2291 7.79862 14.6271 8.19664C15.0251 8.59465 15.0251 9.19168 14.6271 9.58969L9.70163 14.5151C9.50263 14.7141 9.25387 14.8136 9.00511 14.8136C8.75635 14.8136 8.50759 14.7141 8.30858 14.5151L5.27371 11.4803C4.87569 11.0823 4.87569 10.4355 5.27371 10.0872Z" fill="#3B61A7"/>
</svg>
