<svg width="25" height="25" viewBox="0 0 25 25" fill="none" xmlns="http://www.w3.org/2000/svg">
<path d="M23.3377 12.8239C23.2881 12.7232 23.2623 12.6124 23.2623 12.5001C23.2623 12.3878 23.2881 12.277 23.3377 12.1763L24.2701 10.2688C24.7893 9.20678 24.3779 7.94091 23.3337 7.38686L21.4582 6.39175C21.3589 6.33944 21.2729 6.26499 21.2069 6.17416C21.1409 6.08332 21.0966 5.97853 21.0776 5.86788L20.7108 3.77663C20.5065 2.61228 19.4295 1.82987 18.2592 1.99544L16.157 2.2928C16.0459 2.30887 15.9326 2.29917 15.8258 2.26447C15.719 2.22977 15.6216 2.17098 15.5412 2.09266L14.0153 0.616494C13.1656 -0.205474 11.8346 -0.205522 10.9849 0.616494L9.45898 2.0928C9.37852 2.17111 9.28113 2.22988 9.17435 2.26459C9.06757 2.29929 8.95424 2.30899 8.84311 2.29295L6.74093 1.99559C5.57028 1.82991 4.49363 2.61243 4.28938 3.77678L3.92259 5.86793C3.90352 5.97858 3.85929 6.08337 3.79329 6.17421C3.7273 6.26506 3.64131 6.33952 3.54197 6.39185L1.6665 7.38696C0.622265 7.94096 0.21094 9.20692 0.730077 10.269L1.66244 12.1764C1.71207 12.2771 1.73789 12.3879 1.73789 12.5002C1.73789 12.6125 1.71207 12.7233 1.66244 12.824L0.730028 14.7314C0.210891 15.7935 0.622216 17.0593 1.66645 17.6134L3.54193 18.6085C3.64128 18.6608 3.72727 18.7352 3.79328 18.8261C3.85928 18.9169 3.90352 19.0217 3.92259 19.1324L4.28938 21.2236C4.47532 22.2836 5.3842 23.0269 6.42877 23.0268C6.53165 23.0268 6.63605 23.0196 6.74098 23.0047L8.84316 22.7074C8.95429 22.6913 9.06763 22.701 9.17442 22.7357C9.28121 22.7704 9.37858 22.8292 9.45903 22.9075L10.9849 24.3837C11.4098 24.7947 11.9549 25.0002 12.5001 25.0001C13.0451 25.0001 13.5905 24.7946 14.0152 24.3837L15.5412 22.9075C15.7058 22.7483 15.9302 22.6755 16.157 22.7074L18.2592 23.0047C19.43 23.1704 20.5065 22.3879 20.7108 21.2236L21.0776 19.1324C21.0967 19.0217 21.1409 18.917 21.2069 18.8261C21.2729 18.7353 21.3589 18.6608 21.4582 18.6085L23.3337 17.6134C24.3779 17.0594 24.7893 15.7934 24.2701 14.7314L23.3377 12.8239ZM9.61625 6.01158C11.0739 6.01158 12.2597 7.19746 12.2597 8.65507C12.2597 10.1127 11.0739 11.2986 9.61625 11.2986C8.15865 11.2986 6.97276 10.1127 6.97276 8.65507C6.97276 7.19746 8.15865 6.01158 9.61625 6.01158ZM8.25181 17.7679C8.11104 17.9086 7.92652 17.979 7.74205 17.979C7.55758 17.979 7.37301 17.9087 7.23229 17.7679C6.95074 17.4863 6.95074 17.0298 7.23229 16.7483L16.7483 7.23228C17.0298 6.95073 17.4863 6.95073 17.7679 7.23228C18.0494 7.51382 18.0494 7.97031 17.7679 8.25185L8.25181 17.7679ZM15.3838 18.9887C13.9262 18.9887 12.7403 17.8028 12.7403 16.3452C12.7403 14.8876 13.9262 13.7017 15.3838 13.7017C16.8414 13.7017 18.0273 14.8876 18.0273 16.3452C18.0273 17.8028 16.8414 18.9887 15.3838 18.9887Z" fill="#3B61A7"/>
<path d="M15.3841 15.1435C14.7216 15.1435 14.1825 15.6825 14.1825 16.3451C14.1825 17.0076 14.7215 17.5466 15.3841 17.5466C16.0467 17.5466 16.5857 17.0076 16.5857 16.3451C16.5857 15.6825 16.0467 15.1435 15.3841 15.1435ZM9.61659 7.45337C8.95405 7.45337 8.41504 7.99238 8.41504 8.65492C8.41504 9.31747 8.95405 9.85653 9.61659 9.85653C10.2791 9.85653 10.8182 9.31752 10.8182 8.65492C10.8182 7.99243 10.2791 7.45337 9.61659 7.45337Z" fill="#3B61A7"/>
</svg>
