<svg width="25" height="25" viewBox="0 0 25 25" fill="none" xmlns="http://www.w3.org/2000/svg">
<path d="M25 18.4569L23.2944 13.5002L20.0228 16.8973L25 18.4569ZM9.78721 7.08165L13.5043 3.36451L14.5081 4.36822L10.7909 8.08536L9.78721 7.08165ZM18.7821 16.0758L22.43 12.2882L15.5472 5.40411L11.8297 9.12203L18.7821 16.0758ZM8.75132 6.04293L12.4688 2.32506L10.9128 0.768805C9.88804 -0.256293 8.22036 -0.256244 7.19551 0.768805C6.69907 1.26539 6.42559 1.92559 6.42559 2.62784C6.42559 3.33008 6.69902 3.99034 7.19551 4.48687L8.75132 6.04293ZM0 25H2.87505V22.7432H4.34209V25H5.80933V22.7432H7.27637V25H8.74355V22.7432H10.2106V25H11.6778V22.7432H13.1449V25H14.6121V22.7432H16.0791V25H17.5464V22.7432H19.0134V25H24.9951L0 0.00527954V25ZM4.60166 10.9873L14.025 20.4227H4.60166V10.9873Z" fill="#3B61A7"/>
</svg>
