<svg width="23" height="25" viewBox="0 0 23 25" fill="none" xmlns="http://www.w3.org/2000/svg">
<path d="M22.4267 5.75919V20.6287C22.4267 20.9948 22.1274 21.2937 21.7612 21.2937H20.887L10.1756 10.5787C10.0578 10.4597 9.91756 10.3655 9.76298 10.3013C9.60839 10.2372 9.44258 10.2045 9.27522 10.2051C8.93599 10.2049 8.61054 10.3394 8.37032 10.5789C8.1301 10.8184 7.99475 11.1435 7.99397 11.4827V21.2941H3.32007C2.31492 21.2941 1.42228 20.5581 1.32889 19.5607C1.30366 19.2947 1.33423 19.0265 1.41867 18.773C1.50311 18.5196 1.63954 18.2866 1.81923 18.0889C1.99892 17.8913 2.21791 17.7333 2.46217 17.6252C2.70644 17.5171 2.97059 17.4612 3.23772 17.461C3.48947 17.4608 3.7388 17.5103 3.97143 17.6065C4.20407 17.7028 4.41544 17.8439 4.59348 18.0219C4.77152 18.1999 4.91271 18.4113 5.009 18.6439C5.10529 18.8765 5.15477 19.1258 5.15463 19.3776V5.09448H21.7612C22.1274 5.09448 22.4267 5.39338 22.4267 5.75956V5.75919Z" fill="#3B61A7"/>
<path d="M8.74113 11.4824V23.5504C8.74113 23.8435 8.97863 24.081 9.27164 24.081H21.3364C21.8091 24.081 22.0459 23.5096 21.7113 23.1754L9.64738 11.1074C9.31282 10.7729 8.74113 11.0096 8.74113 11.4824ZM11.2033 21.6151V16.1493L16.6694 21.6151H11.2033ZM4.40731 4.90375V16.9824C4.04301 16.8054 3.64325 16.7133 3.23819 16.7133C1.83709 16.7133 0.682675 17.8045 0.585248 19.1791C0.577895 19.2464 0.574219 19.31 0.574219 19.3773V4.90375C0.574608 4.39557 0.776654 3.90831 1.13599 3.54898C1.49533 3.18964 1.98258 2.98759 2.49076 2.9872C2.99894 2.98759 3.4862 3.18964 3.84553 3.54898C4.20487 3.90831 4.40692 4.39557 4.40731 4.90375ZM10.8893 0.921028H17.8647V4.1714H10.8893V0.921028ZM10.1415 4.17103L7.57716 2.84235C7.52272 2.81415 7.47707 2.77152 7.44521 2.71913C7.41335 2.66674 7.3965 2.60661 7.3965 2.54529C7.3965 2.48398 7.41335 2.42384 7.44521 2.37145C7.47707 2.31906 7.52272 2.27644 7.57716 2.24823L10.1411 0.919189L10.1415 4.17103ZM19.8239 4.17103H18.6125V0.919189H19.8239C20.5974 2.00301 20.5974 3.0872 19.8239 4.17103Z" fill="#3B61A7"/>
</svg>
